<svg preserveAspectRatio="xMidYMid meet" xmlns="http://www.w3.org/2000/svg" viewBox="0.19 0.293 159.048 21.597" height="22" width="160" role="img" aria-label="Pausa">
    <g fill="currentColor">
        <path d="M17.388 12.048c-1.561 1.757-3.196 1.835-5.365 1.835H4.07v7.3H.19V.96h12.516c1.827 0 2.891.195 4.3 1.445 1.37 1.21 2.131 3.084 2.131 4.959 0 1.718-.608 3.436-1.75 4.687zM12.023 5.02H4.07v4.842h7.95c1.864 0 3.12-.351 3.12-2.537 0-1.992-1.522-2.303-3.12-2.303z"></path>
        <path d="m49.502 21.186-1.978-4.256H35.997l-1.977 4.256h-4.49L39.077.959h5.25l9.663 20.227zM41.74 4.902l-3.804 8.005h7.608z"></path>
        <path d="M87.246 19.19c-1.903 2.421-6.628 1.885-9.511 1.653-5.574-.452-9.51 2.326-9.51-3.648V.96h3.919V17.4c0 4.14 2.587.352 5.935.352 1.217 0 3.274 1.612 4.34.988 1.103-.625.949.644.949-1.542V.96h3.88v18.232z"></path>
        <path d="M113.923 21.89c-4.907 0-7.039-.703-11.072-3.594l1.827-3.631c3.88 2.499 5.936 3.123 10.54 3.123 1.711 0 4.946-.548 4.946-2.889 0-1.64-1.712-1.953-2.967-2.031-1.978-.116-3.92-.078-5.897-.157-3.614-.156-7.189-1.991-7.189-6.209 0-5.076 5.288-6.209 9.245-6.209 3.651 0 6.315.898 9.511 2.656l-1.788 3.594c-2.814-1.524-5.478-2.227-8.674-2.227-1.406 0-4.336.39-4.336 2.343 0 1.64 2.322 1.913 3.501 1.951 1.711.079 3.425.04 5.136.117 3.956.156 7.457 1.756 7.457 6.365 0 5.623-5.896 6.795-10.234 6.795z"></path>
        <path d="m154.75 21.186-1.98-4.256h-11.527l-1.977 4.256h-4.489L144.325.959h5.25l9.663 20.227zm-7.761-16.284-3.804 8.005h7.608z"></path>
        <path d="M87.246 17.196H68.224v3.99h19.022z"></path>
    </g>
</svg>
